<svg width="122" height="53" viewBox="0 0 122 53" fill="none" xmlns="http://www.w3.org/2000/svg">
<g clip-path="url(#clip0_212_616)">
<path d="M106.683 1.95691C110.79 1.95691 114.312 3.42459 117.252 6.34831C120.192 9.2783 121.659 12.7923 121.659 16.9038C121.659 21.0215 120.192 24.5301 117.252 27.4342C116.853 27.8277 116.444 28.1944 116.024 28.5343C109.105 24.9594 101.796 23.2503 101.645 16.9091C102.918 19.4545 103.652 20.8569 106.392 22.2271C106.61 21.8998 106.842 21.5062 107.076 21.1977C108.252 19.6361 108.499 20.238 111.137 19.6594C113.354 19.1737 113.858 18.1908 114.016 15.7169C112 13.9952 112.581 15.1839 111.339 12.38C110.576 10.6583 109.933 10.517 107.908 10.085L108.114 6.68102C103.567 7.75427 100.394 11.5768 98.7994 15.809C96.8102 21.093 97.4188 24.6598 98.4161 29.3312C97.6082 28.7892 96.838 28.1577 96.1064 27.4351C93.1846 24.5176 91.7178 21.0099 91.7178 16.9047C91.7178 12.8057 93.1846 9.29082 96.1064 6.3492C99.0472 3.42548 102.568 1.9578 106.682 1.9578L106.683 1.95691Z" fill="#3D4A39"/>
<path d="M109.978 9.22284L110.238 8.59857C111.335 9.05381 112.338 9.73443 113.247 10.6395L113.246 10.6404C114.164 11.5527 114.853 12.5562 115.311 13.6509C115.771 14.7474 116 15.9325 116 17.2043C116 18.4877 115.77 19.6781 115.31 20.7746C114.85 21.8685 114.162 22.8657 113.244 23.7646C112.33 24.6652 111.326 25.3396 110.232 25.7903C109.135 26.2429 107.951 26.4683 106.682 26.4683C105.394 26.4683 104.199 26.2438 103.098 25.7921C101.997 25.3413 100.996 24.6652 100.093 23.7628L100.092 23.7637C99.1841 22.8585 98.5009 21.8577 98.044 20.7612C97.5871 19.6656 97.3582 18.4797 97.3582 17.2043C97.3582 15.9387 97.5871 14.7582 98.0431 13.6616C98.4991 12.5669 99.1823 11.5599 100.091 10.6422C100.988 9.73532 101.987 9.05381 103.086 8.59857L103.347 9.22284C102.33 9.6432 101.406 10.2746 100.574 11.1154C99.7271 11.9704 99.0925 12.9059 98.6697 13.921C98.2487 14.9326 98.0378 16.0273 98.0378 17.2043C98.0378 18.392 98.2487 19.4912 98.6706 20.5019C99.0925 21.5134 99.7271 22.4418 100.573 23.2852V23.2861C101.411 24.125 102.339 24.7519 103.355 25.1687C104.37 25.5846 105.478 25.7921 106.681 25.7921C107.864 25.7921 108.961 25.5846 109.974 25.1669C110.985 24.7502 111.916 24.1232 112.767 23.2852L112.767 23.2843C113.62 22.4498 114.258 21.5268 114.682 20.5171C115.107 19.5046 115.319 18.401 115.319 17.2052C115.319 16.021 115.108 14.9227 114.683 13.9103C114.258 12.897 113.62 11.9659 112.766 11.118H112.765C111.918 10.2746 110.988 9.64231 109.977 9.22284H109.978ZM106.682 1.95691C108.78 1.95691 110.731 2.33255 112.535 3.08293C114.337 3.83242 115.989 4.95487 117.491 6.44759H117.492C118.993 7.94299 120.119 9.59133 120.872 11.3917C121.624 13.193 121.999 15.1427 121.999 17.2418C121.999 19.3445 121.623 21.2943 120.872 23.092C120.12 24.8879 118.994 26.5282 117.491 28.012C115.995 29.4895 114.346 30.5976 112.543 31.3373C110.739 32.0769 108.785 32.4472 106.682 32.4472V32.4463C104.57 32.44 102.611 32.0671 100.807 31.3274C99.0036 30.5878 97.3564 29.4832 95.8681 28.0129L95.8672 28.012C94.3744 26.5219 93.2532 24.8789 92.5046 23.0839C91.755 21.2871 91.3789 19.3401 91.3789 17.2436C91.3789 15.1499 91.755 13.2037 92.5046 11.4024C93.2532 9.60385 94.3744 7.95372 95.8672 6.45027L95.8681 6.44938C97.3699 4.95666 99.0216 3.83421 100.825 3.08472C102.629 2.33434 104.582 1.9587 106.683 1.9587L106.682 1.95691ZM112.275 3.70631C110.556 2.99171 108.692 2.63306 106.682 2.63306C104.67 2.63306 102.804 2.99081 101.084 3.70631C99.3636 4.42182 97.7846 5.49507 96.3466 6.92518C94.9184 8.36424 93.8448 9.94193 93.1302 11.66C92.4157 13.3763 92.0584 15.2366 92.0584 17.2418C92.0584 19.2506 92.4166 21.1109 93.1302 22.8228C93.8448 24.5364 94.9175 26.1069 96.3466 27.5335C97.772 28.9412 99.3447 29.9975 101.065 30.7022C102.787 31.4088 104.661 31.7648 106.682 31.7701V31.7684C108.699 31.7684 110.567 31.416 112.285 30.7121C114.005 30.0073 115.581 28.9475 117.012 27.5326C118.451 26.1123 119.528 24.5453 120.245 22.8317C120.961 21.119 121.319 19.256 121.319 17.241C121.319 15.2295 120.961 13.3656 120.245 11.6493C119.529 9.93298 118.451 8.35798 117.012 6.92429L117.012 6.9234C115.574 5.49328 113.995 4.42003 112.275 3.70453V3.70631Z" fill="#3D4A39"/>
<path d="M103.318 9.14952L103.348 9.22286C103.271 9.25505 103.195 9.28815 103.118 9.32213C101.176 11.0438 99.7226 13.3576 98.7998 15.8082C98.5035 16.5952 98.2648 17.3438 98.0771 18.0638C98.1552 18.9269 98.3536 19.7399 98.6714 20.5019C99.0933 21.5134 99.728 22.4418 100.574 23.2852V23.2861C101.412 24.125 102.34 24.752 103.355 25.1687C104.371 25.5846 105.479 25.7921 106.682 25.7921C107.629 25.7921 108.521 25.6589 109.36 25.3914C105.082 23.3415 101.746 21.1718 101.644 16.9083C102.917 19.4537 103.652 20.856 106.391 22.2262C106.609 21.8989 106.842 21.5054 107.075 21.1977C108.251 19.6361 108.498 20.2371 111.136 19.6594C113.354 19.1737 113.857 18.1908 114.015 15.7169C112 13.9953 112.581 15.1839 111.338 12.38C110.575 10.6583 109.933 10.517 107.907 10.085L108.114 6.68103C106.289 7.11212 104.686 7.98593 103.317 9.15041L103.318 9.14952Z" fill="#DDD5C1"/>
<path d="M110.22 25.7965C109.125 26.2455 107.946 26.4691 106.683 26.4691C105.395 26.4691 104.2 26.2437 103.098 25.793C101.998 25.3422 100.997 24.666 100.094 23.7636L100.093 23.7645C99.1847 22.8594 98.5015 21.8586 98.0446 20.7621C97.9136 20.4481 97.8014 20.1271 97.708 19.7988C97.1748 23.0892 97.682 25.886 98.3983 29.2488C99.2439 29.8364 100.133 30.3221 101.064 30.704C102.787 31.4105 104.66 31.7665 106.682 31.7719V31.771C108.699 31.771 110.567 31.4186 112.285 30.7147C113.589 30.1799 114.811 29.4411 115.95 28.4976C114.013 27.5012 112.047 26.648 110.219 25.7974L110.22 25.7965Z" fill="#AE7B3C"/>
<path d="M75.3488 2.0124C79.444 2.0124 82.9718 3.46129 85.9367 6.36624L81.7106 10.577C79.9188 8.81684 77.8084 7.93319 75.3865 7.93319C72.9081 7.93319 70.7977 8.81684 69.0562 10.577C67.3022 12.3246 66.4216 14.4335 66.4216 16.9029C66.4216 19.366 67.3022 21.475 69.0562 23.2226C70.7851 24.9702 72.8955 25.8476 75.3865 25.8476C77.216 25.8476 78.8766 25.3378 80.3748 24.3173C81.7545 23.3845 82.7851 22.178 83.4718 20.7094H75.0562V15.0802H90.2015C90.5884 20.0932 89.1593 24.2118 85.8999 27.4333C82.9592 30.3383 79.4386 31.7872 75.3309 31.7872C71.1855 31.7872 67.6649 30.3383 64.7744 27.4333C61.8525 24.5409 60.3857 21.0332 60.3857 16.9029C60.3857 12.804 61.8525 9.28907 64.7744 6.34746C67.6774 3.42373 71.1981 1.95605 75.3309 1.95605L75.3497 2.0124H75.3488Z" fill="#3D4A39"/>
<path d="M75.5924 1.67609C77.5906 1.70382 79.4586 2.07409 81.1947 2.7887C83.0008 3.53104 84.6597 4.64364 86.174 6.12652L86.4182 6.36532L81.7126 11.0537L81.473 10.8184C80.6085 9.96967 79.6678 9.33198 78.6525 8.90715C77.6409 8.48411 76.552 8.27214 75.3859 8.27214C74.192 8.27214 73.0888 8.48411 72.0763 8.90715C71.0619 9.33108 70.1355 9.96699 69.2971 10.814L69.2962 10.8166C68.4497 11.66 67.8151 12.5884 67.3932 13.6008C66.9722 14.6124 66.7612 15.7134 66.7612 16.9029C66.7612 18.0906 66.9722 19.1898 67.3941 20.2005C67.816 21.212 68.4506 22.1404 69.2962 22.9829L69.2971 22.9856C70.1292 23.8272 71.0529 24.4586 72.0664 24.879C73.0781 25.2984 74.1849 25.5086 75.3859 25.5086C76.2683 25.5086 77.1076 25.3861 77.9048 25.1419C78.7028 24.8969 79.4622 24.5293 80.183 24.0382H80.1839C80.8455 23.5911 81.4245 23.0768 81.9209 22.499C82.3024 22.0545 82.6354 21.5707 82.92 21.0483H74.7154V14.7421H90.5151L90.5393 15.0551C90.7359 17.6059 90.4693 19.9339 89.7368 22.0384C89.0025 24.1474 87.8042 26.0256 86.1381 27.673C84.6363 29.1568 82.9837 30.2694 81.1812 31.0117C79.3769 31.755 77.4272 32.1261 75.3303 32.1261C73.2136 32.1261 71.2531 31.755 69.4506 31.0108C67.649 30.2676 66.0099 29.155 64.5341 27.6721C63.0413 26.1937 61.9201 24.5579 61.1706 22.762C60.421 20.9652 60.0449 19.0118 60.0449 16.9029C60.0449 14.8092 60.421 12.863 61.1706 11.0617C61.9192 9.26311 63.0404 7.61298 64.5332 6.10953C66.0171 4.61502 67.6607 3.49168 69.4632 2.74219C71.2648 1.9927 73.2208 1.61707 75.3303 1.61707H75.5736L75.5924 1.6752V1.67609ZM80.938 3.41208C79.2162 2.70463 77.3536 2.35046 75.3491 2.35046H75.1059L75.0879 2.2959C73.1597 2.32362 71.3716 2.68048 69.7235 3.36647C68.0045 4.08197 66.4345 5.15523 65.0135 6.58534C63.5844 8.0244 62.5117 9.60208 61.7963 11.3211C61.0817 13.0374 60.7245 14.8977 60.7245 16.9029C60.7245 18.9242 61.0826 20.7908 61.7963 22.5026C62.5108 24.2162 63.5835 25.7796 65.0117 27.1945L65.0126 27.1954C66.4255 28.6157 67.991 29.6791 69.7064 30.3866C71.4237 31.0949 73.2989 31.4491 75.3294 31.4491C77.3401 31.4491 79.2046 31.0958 80.9236 30.3874C82.6426 29.6791 84.2216 28.6148 85.6606 27.1936C87.253 25.6186 88.3984 23.8272 89.0977 21.8184C89.7682 19.891 90.0304 17.757 89.884 15.4182H75.3949V20.3704H84.0035L83.7782 20.8516C83.4218 21.6136 82.9748 22.3094 82.4353 22.9373C81.9021 23.5589 81.2782 24.1116 80.5645 24.5955V24.5963C79.7881 25.1249 78.9676 25.522 78.1032 25.7877C77.2378 26.0533 76.3321 26.1857 75.3859 26.1857C74.0969 26.1857 72.9039 25.9576 71.807 25.5032C70.71 25.0489 69.7136 24.3674 68.816 23.4614L68.8151 23.4623C67.9066 22.5572 67.2235 21.5563 66.7666 20.4598C66.3097 19.3642 66.0808 18.1783 66.0808 16.9029C66.0808 15.6248 66.3097 14.438 66.7666 13.3415C67.2235 12.2441 67.9066 11.2433 68.8151 10.3382L68.816 10.339C69.719 9.42678 70.7181 8.74079 71.8133 8.28377C72.9102 7.82495 74.1014 7.59599 75.3859 7.59599C76.6418 7.59599 77.8186 7.82584 78.9146 8.28377C79.9128 8.70144 80.8437 9.30872 81.7037 10.1056L85.4523 6.37069C84.0681 5.06669 82.5636 4.08108 80.9371 3.41208H80.938Z" fill="#3D4A39"/>
<path d="M51.8821 18.434V2.12414H57.8246V32.1744L40.0447 15.2983V31.6082H34.1201V1.57678L51.8821 18.434Z" fill="#3D4A39"/>
<path d="M51.2024 16.8564V1.44711H58.504V33.7512L40.724 16.876V32.2853H33.4404V0L51.2015 16.8564H51.2024ZM52.5615 2.80119V20.0108L34.8004 3.15447V30.9312H39.3659V13.7216L57.1458 30.5967V2.80119H52.5615Z" fill="#3D4A39"/>
<path d="M24.5371 2.19299H30.4617V31.5707H24.5371V2.19299Z" fill="#3D4A39"/>
<path d="M24.5375 1.854H30.8014V31.9087H24.1973V1.854H24.5366H24.5375ZM30.1227 2.53105H24.8777V31.2317H30.1227V2.53105Z" fill="#3D4A39"/>
<path d="M10.5283 16.1695C11.6019 16.1695 12.5193 15.7652 13.2877 14.9504C14.0435 14.1356 14.4241 13.1652 14.4241 12.033C14.4241 10.9633 14.031 10.0242 13.25 9.2094C12.4448 8.43218 11.2276 8.0467 9.59203 8.0467H6.2644V16.1516H8.54895V16.1703H10.5283V16.1695ZM0.339844 2.19299H9.96007C13.0812 2.19299 15.6539 3.18844 17.6764 5.18469C18.6692 6.16761 19.3684 7.09419 19.7805 7.97158C20.2796 9.04125 20.53 10.3354 20.53 11.8532V12.6179C20.53 14.5962 19.9115 16.4619 18.6701 18.2158C17.7769 19.4536 16.5974 20.3551 15.1369 20.9276L21.9977 31.5707H14.7563L6.28415 18.5771V31.5707H0.340741V2.19299H0.339844Z" fill="#3D4A39"/>
<path d="M10.5287 15.8314C11.0188 15.8314 11.4712 15.7401 11.8859 15.5568C12.3024 15.3725 12.6866 15.0944 13.0385 14.7223C13.3877 14.3449 13.6498 13.9344 13.8231 13.4899C13.9963 13.0445 14.0843 12.5597 14.0843 12.0338C14.0843 11.5428 13.9945 11.084 13.8168 10.6556C13.6373 10.2254 13.368 9.82203 13.0089 9.44639C12.6453 9.09668 12.1857 8.83374 11.6301 8.65755C11.0565 8.47509 10.3778 8.38476 9.5915 8.38476H6.60409V15.8126H8.88863V15.8314H10.5278H10.5287ZM12.1597 16.1748C11.6561 16.3975 11.113 16.5075 10.5287 16.5075H8.21V16.4887H5.92545V7.70682H9.5924C10.4425 7.70682 11.1893 7.80878 11.8348 8.01449C12.4954 8.22467 13.0457 8.54128 13.4864 8.967L13.4954 8.97594C13.9146 9.4133 14.2306 9.88642 14.4425 10.3953C14.6561 10.9078 14.7629 11.4534 14.7629 12.0329C14.7629 12.6393 14.6597 13.2055 14.4541 13.7323C14.2486 14.259 13.9425 14.7411 13.5367 15.1794L13.534 15.182C13.1184 15.623 12.6606 15.9539 12.1588 16.1748H12.1597ZM0.340213 1.854H9.96044C11.5619 1.854 13.0259 2.11069 14.3527 2.62496C15.683 3.14012 16.8706 3.91376 17.9155 4.94498C18.4218 5.44672 18.8554 5.93595 19.2171 6.41534C19.5816 6.8983 19.8715 7.36874 20.0869 7.82846L20.0878 7.82935C20.3491 8.38923 20.5447 9.00635 20.6749 9.67982C20.8042 10.3497 20.8688 11.0742 20.8688 11.8523V12.617C20.8688 13.6419 20.7081 14.6383 20.3877 15.606C20.0672 16.5701 19.5869 17.5047 18.9469 18.4099L18.9442 18.4125C18.4792 19.0574 17.9397 19.6146 17.3257 20.0859C16.8141 20.4786 16.2512 20.8113 15.639 21.0832L22.6174 31.9087H14.5717L6.62294 19.7165V31.9087H0V1.854H0.339316H0.340213ZM9.96044 2.53105H0.679529V31.2317H5.94341V17.4359L14.938 31.2317H21.376L14.6274 20.7639L15.0125 20.6127C15.7144 20.3372 16.3482 19.984 16.9119 19.552C17.473 19.1209 17.9676 18.6111 18.3931 18.0217H18.3922C18.9936 17.1729 19.4433 16.2973 19.7431 15.3949C20.0412 14.4969 20.1902 13.5704 20.1902 12.6179V11.8532C20.1902 11.1135 20.13 10.432 20.0097 9.80772C19.8904 9.18791 19.7108 8.62266 19.4729 8.11287H19.4738C19.2781 7.69609 19.0124 7.265 18.6767 6.82049C18.3374 6.37062 17.9245 5.90554 17.4388 5.42436C16.4613 4.45933 15.3509 3.73578 14.1094 3.2546C12.8644 2.77253 11.482 2.53105 9.96133 2.53105H9.96044Z" fill="#3D4A39"/>
<path d="M6.3398 51.2094C6.96368 51.2094 7.52023 51.1048 8.01035 50.8955C8.50047 50.6862 8.91788 50.3928 9.2572 50.0163C9.59741 49.6398 9.85594 49.189 10.0346 48.6658C10.2132 48.1426 10.3012 47.5666 10.3012 46.9379V37.8179H12.329V46.9379C12.329 47.8036 12.1925 48.6059 11.9161 49.3464C11.6396 50.0861 11.2437 50.7247 10.7285 51.2658C10.2132 51.8069 9.58305 52.2326 8.84068 52.5394C8.09832 52.8461 7.26439 53 6.3398 53C5.41521 53 4.58129 52.8461 3.83892 52.5394C3.09656 52.2326 2.4655 51.8069 1.94755 51.2658C1.42871 50.7247 1.03374 50.0861 0.756358 49.3464C0.479879 48.6068 0.339844 47.8036 0.339844 46.9379V37.8179H2.36766V46.9271C2.36766 47.555 2.45832 48.131 2.63696 48.6551C2.81559 49.1783 3.07501 49.629 3.41433 50.0056C3.75454 50.3821 4.17106 50.6755 4.66477 50.8883C5.15848 51.1012 5.71593 51.2094 6.33891 51.2094H6.3398Z" fill="#AE7B3C"/>
<path d="M23.397 44.3925H24.1645C24.4311 44.3925 24.6448 44.3576 24.8055 44.2915C24.9661 44.2253 25.1134 44.1135 25.2471 43.9525L30.2596 38.2982C30.3997 38.1167 30.5469 37.9915 30.7013 37.9217C30.8557 37.8519 31.0442 37.8171 31.2686 37.8171H32.9921L27.2543 44.2772C27.1142 44.4444 26.9814 44.5803 26.8512 44.6886C26.722 44.7968 26.5819 44.8871 26.4347 44.9569C26.6241 45.0195 26.7956 45.1107 26.95 45.2323C27.1044 45.3549 27.2543 45.515 27.4015 45.7108L33.3916 52.8203H31.6259C31.493 52.8203 31.3808 52.8095 31.2857 52.7925C31.1914 52.7746 31.107 52.7469 31.037 52.7085C30.967 52.67 30.9078 52.6244 30.8548 52.5725C30.8018 52.5197 30.7498 52.4607 30.7004 52.391L25.5092 46.4335C25.3692 46.2591 25.2184 46.133 25.0577 46.0596C24.897 45.9863 24.6511 45.9514 24.3225 45.9514H23.3979V52.8203H21.3701V37.8162H23.3979V44.3916L23.397 44.3925Z" fill="#AE7B3C"/>
<path d="M44.8453 45.0838C45.4341 45.0838 45.9557 45.0105 46.4072 44.8674C46.8587 44.7243 47.2375 44.5221 47.5418 44.2601C47.8461 43.998 48.0741 43.6877 48.2285 43.3246C48.3829 42.9614 48.4601 42.5599 48.4601 42.1207C48.4601 41.2272 48.1657 40.5538 47.5777 40.1003C46.9889 39.6469 46.1065 39.4197 44.9296 39.4197H42.7016V45.0847H44.8453V45.0838ZM51.8021 52.822H49.9942C49.6226 52.822 49.3497 52.6789 49.1747 52.3927L45.2654 47.0318C45.146 46.8645 45.0203 46.742 44.8839 46.6686C44.7474 46.5953 44.5338 46.5604 44.2465 46.5604H42.7016V52.822H40.6738V37.8179H44.9296C45.882 37.8179 46.7061 37.9118 47.3991 38.1041C48.093 38.2964 48.6675 38.5754 49.119 38.9385C49.5705 39.3016 49.9036 39.7381 50.1208 40.2506C50.338 40.764 50.4466 41.3399 50.4466 41.9749C50.4466 42.5053 50.3623 43.0008 50.1944 43.4614C50.0265 43.922 49.7842 44.3343 49.4655 44.7001C49.1468 45.0668 48.7582 45.3807 48.2994 45.6392C47.8407 45.8977 47.3183 46.0927 46.7366 46.2259C46.996 46.3726 47.2205 46.5855 47.409 46.8645L51.8021 52.822Z" fill="#AE7B3C"/>
<path d="M66.5144 47.2509L64.1499 41.1467C64.0799 40.9652 64.0063 40.7523 63.9291 40.5117C63.8519 40.2712 63.7783 40.0163 63.7083 39.7435C63.5611 40.3087 63.4102 40.7801 63.2567 41.1566L60.8923 47.25H66.5144V47.2509ZM70.7603 52.8211H69.184C69.0018 52.8211 68.8546 52.7755 68.7424 52.6851C68.6301 52.5948 68.5458 52.4794 68.4901 52.3399L67.0817 48.7168H60.3241L58.9157 52.3399C58.8735 52.4651 58.7927 52.5769 58.6742 52.6753C58.5548 52.7728 58.4076 52.822 58.2325 52.822H56.6562L62.6778 37.8179H64.7379L70.7594 52.822L70.7603 52.8211Z" fill="#AE7B3C"/>
<path d="M79.4605 52.822H77.4219V37.817H79.4605V52.822Z" fill="#AE7B3C"/>
<path d="M100.889 37.817V52.8211H99.8688C99.7072 52.8211 99.5743 52.7934 99.4657 52.737C99.3571 52.6816 99.2485 52.5868 99.1435 52.4544L90.4317 41.1459C90.446 41.3203 90.4559 41.4911 90.4631 41.6593C90.4703 41.8265 90.4738 41.9839 90.4738 42.1306V52.8211H88.6875V37.817H89.7387C89.8293 37.817 89.9065 37.8206 89.9703 37.8313C90.0331 37.8421 90.0896 37.8591 90.1381 37.8841C90.1875 37.9082 90.236 37.9431 90.2853 37.9887C90.3347 38.0344 90.3868 38.0934 90.4433 38.1631L99.1551 49.4609C99.1408 49.2794 99.1309 49.1014 99.1201 48.9306C99.1093 48.7597 99.1022 48.5988 99.1022 48.4458V37.8179H100.889V37.817Z" fill="#AE7B3C"/>
<path d="M117.41 47.2509L115.045 41.1467C114.975 40.9652 114.902 40.7523 114.825 40.5117C114.747 40.2712 114.674 40.0163 114.604 39.7435C114.457 40.3087 114.306 40.7801 114.152 41.1566L111.788 47.25H117.41V47.2509ZM121.656 52.8211H120.079C119.897 52.8211 119.75 52.7755 119.638 52.6851C119.526 52.5948 119.441 52.4794 119.386 52.3399L117.977 48.7168H111.22L109.811 52.3399C109.769 52.4651 109.688 52.5769 109.57 52.6753C109.45 52.7728 109.303 52.822 109.128 52.822H107.552L113.573 37.8179H115.633L121.655 52.822L121.656 52.8211Z" fill="#AE7B3C"/>
</g>
<defs>
<clipPath id="clip0_212_616">
<rect width="122" height="53" fill="white"/>
</clipPath>
</defs>
</svg>
